<svg preserveAspectRatio="none" width="100%" height="100%" overflow="visible" style="display: block;" viewBox="0 0 16 16" fill="none" xmlns="http://www.w3.org/2000/svg">
<g id="&#231;&#130;&#185;&#232;&#181;&#158;-&#231;&#130;&#185;&#228;&#186;&#174;">
<path id="Vector" d="M8.005 15C7.74484 15 7.50469 14.9249 7.29456 14.7654C7.12445 14.634 2.97186 11.622 1.31082 9.17292C0.760475 8.36595 0 7.2681 0 5.71046C0 3.11126 2.07129 1 4.60288 1C5.89368 1 7.12445 1.55362 8.005 2.52011C8.87555 1.54424 10.0963 1 11.3971 1C13.9387 1 16 3.11126 16 5.71046C16 7.23995 15.2896 8.29088 14.7092 9.14477L14.6892 9.17292C13.0281 11.622 8.87555 14.6434 8.70544 14.7654C8.50532 14.9155 8.26517 15 8.005 15Z" fill="#FF4556"/>
<path id="Vector_2" d="M8.27829 12.7509C8.39249 12.7576 8.50909 12.7139 8.60198 12.6184L13.0231 8.07006C13.2088 7.87893 13.228 7.55275 13.0659 7.34116C12.9039 7.12957 12.6221 7.11299 12.4364 7.30412L8.01527 11.8525C7.82954 12.0432 7.81031 12.3701 7.97239 12.5814C8.05341 12.6871 8.16467 12.7442 8.27829 12.7509Z" fill="white"/>
</g>
</svg>
