<svg preserveAspectRatio="none" width="100%" height="100%" overflow="visible" style="display: block;" viewBox="0 0 14.2 14.2" fill="none" xmlns="http://www.w3.org/2000/svg">
<g id="Group 500">
<path id="Vector" d="M7.1 0.0501953C11.0045 0.0501956 14.1498 3.19546 14.1498 7.1C14.1498 11.0045 11.0045 14.1498 7.1 14.1498C6.18234 14.1498 5.26361 13.9886 4.39785 13.6117H2.2543C1.3113 13.6117 0.588281 12.8887 0.588281 11.9457V9.80215C0.211382 8.93639 0.0501954 8.01766 0.0501953 7.1C0.0501953 3.19546 3.19546 0.0501953 7.1 0.0501953ZM1.49648 11.9457C1.49648 12.3489 1.85114 12.7035 2.2543 12.7035H4.57754L4.58535 12.7064L4.74648 12.7602L4.75039 12.7611V12.7621C5.49788 13.0825 6.29898 13.2426 7.1 13.2426C10.4647 13.2426 13.2426 10.4647 13.2426 7.1C13.2426 3.73531 10.4647 0.957422 7.1 0.957422C3.73531 0.957422 0.957422 3.73531 0.957422 7.1C0.957422 7.80078 1.0804 8.50148 1.32559 9.16641L1.43789 9.44961L1.43984 9.45352L1.49355 9.61465L1.49648 9.62246V11.9457Z" fill="#C0C0C0" stroke="#C0C0C0" stroke-width="0.1"/>
</g>
</svg>
