<svg preserveAspectRatio="none" width="100%" height="100%" overflow="visible" style="display: block;" viewBox="0 0 16 16" fill="none" xmlns="http://www.w3.org/2000/svg">
<g id="Frame">
<path id="Vector" d="M7.93125 15C6.74688 15 5.62969 14.4797 4.86719 13.5719C4.68906 13.3609 4.71719 13.0453 4.92812 12.8672C5.13906 12.6891 5.45469 12.7172 5.63281 12.9281C6.20469 13.6094 7.04219 14 7.93125 14C8.82031 14 9.65781 13.6094 10.2297 12.9281C10.4078 12.7172 10.7234 12.6891 10.9344 12.8672C11.1453 13.0453 11.1734 13.3609 10.9953 13.5719C10.2328 14.4797 9.11563 15 7.93125 15ZM12.8938 12.1703H3.10625C2.39844 12.1703 1.79844 11.7391 1.57969 11.0703C1.36406 10.4094 1.58906 9.71406 2.15312 9.30156L2.84219 8.79844C2.99375 8.6875 3.08437 8.51094 3.08437 8.32656V5.86094C3.08437 4.56094 3.59688 3.34062 4.52656 2.42188C5.45469 1.50469 6.6875 1 8 1C9.3125 1 10.5453 1.50469 11.4734 2.42188C12.4031 3.34062 12.9156 4.56094 12.9156 5.86094V8.325C12.9156 8.50937 13.0062 8.68594 13.1578 8.79688L13.8469 9.3C14.4109 9.7125 14.6359 10.4078 14.4203 11.0688C14.2016 11.7391 13.6031 12.1703 12.8938 12.1703ZM8 2C5.84063 2 4.08437 3.73125 4.08437 5.86094V8.325C4.08437 8.82812 3.84062 9.30625 3.43281 9.60469L2.74375 10.1078C2.425 10.3422 2.5 10.6656 2.52969 10.7594C2.59531 10.9578 2.77969 11.1703 3.10469 11.1703H12.8922C13.2172 11.1703 13.4031 10.9578 13.4672 10.7594C13.4984 10.6656 13.5734 10.3406 13.2531 10.1078L12.5641 9.60469C12.1562 9.30625 11.9125 8.82812 11.9125 8.325V5.86094C11.9156 3.73125 10.1594 2 8 2Z" fill="#666666"/>
<circle id="Ellipse 2805" cx="11.5" cy="2.5" r="1.5" fill="#FF5252"/>
</g>
</svg>
