<svg preserveAspectRatio="none" width="100%" height="100%" overflow="visible" style="display: block;" viewBox="0 0 24.3131 24.1798" fill="none" xmlns="http://www.w3.org/2000/svg">
<g id="&#231;&#130;&#171;&#230;&#138;&#128;&#228;&#184;&#173;&#229;&#191;&#131;">
<path id="Vector 90" d="M11.5 14.4379C13.6389 14.6323 18.5 13.8531 17.3333 10.3546C16.1667 8.02012 13.25 7.43704 12.6667 8.60456C12.0833 9.7698 12.9 12.6868 16.1667 12.6868C17.9167 12.6867 21.65 12.2198 22.5833 10.3531" stroke="#7DDFFF" stroke-width="1.3" stroke-linecap="round" stroke-linejoin="round"/>
<g id="Mask group">
<mask id="mask0_0_4" style="mask-type:alpha" maskUnits="userSpaceOnUse" x="2" y="-1" width="23" height="21">
<path id="Vector" d="M11.1922 19.5147C10.9091 19.459 10.6397 19.3486 10.3994 19.1898C10.1591 19.0311 9.95272 18.8271 9.7921 18.5896L8.73201 17.026C8.6948 16.9708 8.64698 16.9233 8.59127 16.8863C8.53556 16.8493 8.47307 16.8235 8.40737 16.8104L6.52189 16.4359C5.1672 16.1652 3.97383 15.3751 3.20357 14.239C2.43332 13.1028 2.14908 11.7134 2.41321 10.3755L3.8338 3.22372C4.10137 1.88651 4.89532 0.711396 6.0415 -0.0438368C7.18767 -0.799069 8.59247 -1.07275 9.94771 -0.804828L20.1081 1.21337C21.4628 1.48406 22.6561 2.27413 23.4264 3.41026C24.1967 4.54639 24.4809 5.9358 24.2168 7.27369L22.7962 14.4255C22.5289 15.7628 21.7352 16.9381 20.5892 17.6936C19.4432 18.4491 18.0385 18.7231 16.6832 18.4555L14.7977 18.0809C14.732 18.068 14.6644 18.0679 14.5988 18.0808C14.5331 18.0937 14.4708 18.1193 14.4153 18.1561L12.8381 19.1959C12.599 19.3536 12.3306 19.4629 12.0481 19.5176C11.7657 19.5723 11.4748 19.5713 11.1922 19.5147ZM9.62422 0.823759C8.70664 0.642775 7.75567 0.828283 6.97973 1.33962C6.2038 1.85096 5.66621 2.64642 5.48478 3.55166L4.06418 10.7035C3.88551 11.6095 4.07808 12.5503 4.59966 13.3196C5.12124 14.0889 5.92927 14.624 6.84656 14.8075L8.73204 15.182C9.01527 15.2374 9.28485 15.3476 9.52517 15.5064C9.7655 15.6652 9.9718 15.8693 10.1321 16.107L11.191 17.6704C11.2673 17.7826 11.3853 17.8605 11.5191 17.8871C11.653 17.9137 11.7918 17.8868 11.9052 17.8123L13.4824 16.7725C13.7214 16.6141 13.99 16.5043 14.2728 16.4494C14.5556 16.3946 14.8468 16.3957 15.1297 16.4528L17.0152 16.8273C17.933 17.0084 18.8841 16.8227 19.6602 16.3111C20.4362 15.7996 20.9737 15.0038 21.1548 14.0983L22.5754 6.94646C22.754 6.03919 22.5604 5.0972 22.0371 4.32754C21.5137 3.55787 20.7035 3.02353 19.7846 2.84196L9.62422 0.823759Z" fill="#8D8D8D"/>
</mask>
<g mask="url(#mask0_0_4)">
<path id="Vector 225" d="M18.0809 3.67817L18.8115 0L26.1678 1.46122L25.0719 6.97848L17.7156 5.51725L18.0809 3.67817Z" fill="url(#paint0_linear_0_4)"/>
</g>
</g>
<g id="Mask group_2">
<mask id="mask1_0_4" style="mask-type:alpha" maskUnits="userSpaceOnUse" x="1" y="2" width="23" height="22">
<path id="Vector_2" d="M12.084 23.1797C11.7762 23.1803 11.4714 23.1208 11.187 23.0046C10.9026 22.8885 10.6443 22.718 10.427 22.5029L8.99292 21.0873C8.94252 21.0373 8.88262 20.9976 8.81664 20.9705C8.75067 20.9433 8.67993 20.9293 8.60846 20.9292H6.55801C5.08445 20.9275 3.67174 20.3489 2.62978 19.3204C1.58781 18.2918 1.0017 16.8973 1 15.4426V7.66505C1.00204 6.21044 1.58848 4.81602 2.63068 3.78768C3.67288 2.75935 5.08573 2.18109 6.55929 2.17975H17.6087C19.0822 2.18143 20.4949 2.76001 21.5369 3.78858C22.5789 4.81715 23.165 6.2117 23.1667 7.66632V15.4439C23.165 16.8985 22.5789 18.2931 21.5369 19.3216C20.4949 20.3502 19.0822 20.9288 17.6087 20.9305H15.5582C15.4867 20.9306 15.416 20.9446 15.35 20.9717C15.284 20.9989 15.2241 21.0386 15.1737 21.0886L13.7397 22.5042C13.5224 22.7189 13.2642 22.889 12.9801 23.005C12.696 23.1209 12.3914 23.1803 12.084 23.1797ZM6.55929 3.95084C5.56169 3.95217 4.60532 4.34388 3.89979 5.04011C3.19426 5.73633 2.79712 6.68028 2.79543 7.66505V15.4426C2.79678 16.4276 3.19377 17.3719 3.89933 18.0684C4.6049 18.7649 5.56147 19.1568 6.55929 19.1581H8.60974C8.91756 19.1572 9.22251 19.2165 9.50694 19.3327C9.79137 19.4488 10.0496 19.6195 10.2668 19.8349L11.6995 21.2505C11.8026 21.352 11.9422 21.409 12.0878 21.409C12.2334 21.409 12.3731 21.352 12.4761 21.2505L13.9102 19.8349C14.1273 19.6195 14.3855 19.4488 14.67 19.3327C14.9544 19.2165 15.2594 19.1572 15.5672 19.1581H17.6176C18.6155 19.1568 19.572 18.7649 20.2776 18.0684C20.9832 17.3719 21.3801 16.4276 21.3815 15.4426V7.66505C21.3798 6.67874 20.9814 5.73346 20.274 5.03698C19.5665 4.3405 18.6078 3.94983 17.6087 3.95084H6.55929Z" fill="#8D8D8D"/>
</mask>
<g mask="url(#mask1_0_4)">
<path id="Rectangle 346243200" d="M-1 2.17975H16V7.17975H24.5V23.1798H-1V2.17975Z" fill="url(#paint1_linear_0_4)"/>
</g>
</g>
</g>
<defs>
<linearGradient id="paint0_linear_0_4" x1="22.4896" y1="0.730612" x2="21.3937" y2="6.24787" gradientUnits="userSpaceOnUse">
<stop stop-color="#7DDFFF"/>
<stop offset="1" stop-color="#A699FF"/>
</linearGradient>
<linearGradient id="paint1_linear_0_4" x1="11.75" y1="2.17975" x2="11.75" y2="23.1798" gradientUnits="userSpaceOnUse">
<stop stop-color="#7DDFFF"/>
<stop offset="1" stop-color="#A699FF"/>
</linearGradient>
</defs>
</svg>
