<svg preserveAspectRatio="none" width="100%" height="100%" overflow="visible" style="display: block;" viewBox="0 0 24.3131 24.1798" fill="none" xmlns="http://www.w3.org/2000/svg">
<g id="&#231;&#130;&#171;&#230;&#138;&#128;&#228;&#184;&#173;&#229;&#191;&#131;">
<path id="Vector 90" d="M11.5 14.4379C13.6389 14.6323 18.5 13.8531 17.3333 10.3546C16.1667 8.02012 13.25 7.43704 12.6667 8.60456C12.0833 9.7698 12.9 12.6868 16.1667 12.6868C17.9167 12.6867 21.65 12.2198 22.5833 10.3531" stroke="#8D8D8D" stroke-width="1.3" stroke-linecap="round" stroke-linejoin="round"/>
<g id="Mask group">
<mask id="mask0_0_4" style="mask-type:alpha" maskUnits="userSpaceOnUse" x="2" y="-1" width="23" height="21">
<path id="Vector" d="M11.1922 19.5147C10.9091 19.459 10.6397 19.3486 10.3994 19.1898C10.1591 19.0311 9.95272 18.8271 9.7921 18.5896L8.73201 17.026C8.6948 16.9708 8.64698 16.9233 8.59127 16.8863C8.53556 16.8493 8.47307 16.8235 8.40737 16.8104L6.52189 16.4359C5.1672 16.1652 3.97383 15.3751 3.20357 14.239C2.43332 13.1028 2.14908 11.7134 2.41321 10.3755L3.8338 3.22372C4.10137 1.88651 4.89532 0.711396 6.0415 -0.0438368C7.18767 -0.799069 8.59247 -1.07275 9.94771 -0.804828L20.1081 1.21337C21.4628 1.48406 22.6561 2.27413 23.4264 3.41026C24.1967 4.54639 24.4809 5.9358 24.2168 7.27369L22.7962 14.4255C22.5289 15.7628 21.7352 16.9381 20.5892 17.6936C19.4432 18.4491 18.0385 18.7231 16.6832 18.4555L14.7977 18.0809C14.732 18.068 14.6644 18.0679 14.5988 18.0808C14.5331 18.0937 14.4708 18.1193 14.4153 18.1561L12.8381 19.1959C12.599 19.3536 12.3306 19.4629 12.0481 19.5176C11.7657 19.5723 11.4748 19.5713 11.1922 19.5147ZM9.62422 0.823759C8.70664 0.642775 7.75567 0.828283 6.97973 1.33962C6.2038 1.85096 5.66621 2.64642 5.48478 3.55166L4.06418 10.7035C3.88551 11.6095 4.07808 12.5503 4.59966 13.3196C5.12124 14.0889 5.92927 14.624 6.84656 14.8075L8.73204 15.182C9.01527 15.2374 9.28485 15.3476 9.52517 15.5064C9.7655 15.6652 9.9718 15.8693 10.1321 16.107L11.191 17.6704C11.2673 17.7826 11.3853 17.8605 11.5191 17.8871C11.653 17.9137 11.7918 17.8868 11.9052 17.8123L13.4824 16.7725C13.7214 16.6141 13.99 16.5043 14.2728 16.4494C14.5556 16.3946 14.8468 16.3957 15.1297 16.4528L17.0152 16.8273C17.933 17.0084 18.8841 16.8227 19.6602 16.3111C20.4362 15.7996 20.9737 15.0038 21.1548 14.0983L22.5754 6.94646C22.754 6.03919 22.5604 5.0972 22.0371 4.32754C21.5137 3.55787 20.7035 3.02353 19.7846 2.84196L9.62422 0.823759Z" fill="#8D8D8D"/>
</mask>
<g mask="url(#mask0_0_4)">
<path id="Vector 225" d="M18.0809 3.67817L18.8115 0L26.1678 1.46122L25.0719 6.97848L17.7156 5.51725L18.0809 3.67817Z" fill="#8D8D8D"/>
</g>
</g>
<g id="Mask group_2">
<mask id="mask1_0_4" style="mask-type:alpha" maskUnits="userSpaceOnUse" x="1" y="2" width="23" height="22">
<path id="Vector_2" d="M6.55957 2.67975H17.6084C18.9515 2.68136 20.2378 3.209 21.1855 4.1446C22.0739 5.02156 22.597 6.18969 22.6602 7.41999L22.667 7.66706V15.4434L22.6602 15.6905C22.5969 16.9207 22.0739 18.089 21.1855 18.9659C20.2378 19.9014 18.9515 20.4291 17.6084 20.4307H15.5576C15.4214 20.4309 15.2862 20.4571 15.1602 20.5089C15.0344 20.5606 14.9191 20.6366 14.8223 20.7325L13.3887 22.1485C13.2182 22.3169 13.0148 22.4508 12.791 22.5421C12.5673 22.6333 12.3274 22.6802 12.085 22.6798H12.083C11.8403 22.6802 11.5999 22.6335 11.376 22.5421C11.208 22.4734 11.0517 22.3808 10.9121 22.2676L10.7783 22.1475L9.34375 20.7315C9.24693 20.6357 9.13254 20.5596 9.00684 20.5079C8.88072 20.456 8.74563 20.429 8.60938 20.4288H6.55859C5.21556 20.4273 3.92926 19.9003 2.98145 18.9649C2.0339 18.0295 1.50164 16.7624 1.5 15.4424V7.66608C1.50185 6.34608 2.03373 5.07884 2.98145 4.14362C3.87025 3.26664 5.05702 2.74895 6.30859 2.68659L6.55957 2.67975ZM21.8818 7.66413C21.8799 6.54327 21.4269 5.47026 20.625 4.68073C19.8233 3.89144 18.7379 3.45016 17.6084 3.45124H6.55859C5.43073 3.45276 4.34843 3.89558 3.54883 4.68464C2.74907 5.47389 2.29784 6.54498 2.2959 7.66413V15.4434C2.29747 16.5627 2.74818 17.6344 3.54785 18.4239C4.3475 19.2133 5.43047 19.6567 6.55859 19.6583H8.61133C8.8539 19.6575 9.09456 19.7046 9.31836 19.796C9.54193 19.8874 9.74499 20.0208 9.91504 20.1895V20.1905L11.3477 21.6065H11.3486C11.5459 21.8008 11.812 21.9092 12.0879 21.9092C12.3293 21.9092 12.5632 21.8266 12.75 21.6758L12.8271 21.6065L14.2617 20.1905L14.2627 20.1895C14.4328 20.0209 14.6358 19.8873 14.8594 19.796C15.0831 19.7046 15.323 19.6575 15.5654 19.6583H17.6182C18.7463 19.6568 19.8293 19.2133 20.6289 18.4239C21.4286 17.6343 21.8803 16.5628 21.8818 15.4434V7.66413Z" fill="#8D8D8D" stroke="white"/>
</mask>
<g mask="url(#mask1_0_4)">
<path id="Rectangle 346243200" d="M-1 2.17975H16V7.17975H24.5V23.1798H-1V2.17975Z" fill="#8D8D8D"/>
</g>
</g>
</g>
</svg>
