<svg preserveAspectRatio="none" width="100%" height="100%" overflow="visible" style="display: block;" viewBox="0 0 17.4266 20.8494" fill="none" xmlns="http://www.w3.org/2000/svg">
<g id="Mask group">
<mask id="mask0_0_9" style="mask-type:alpha" maskUnits="userSpaceOnUse" x="0" y="0" width="18" height="21">
<g id="Union">
<mask id="path-1-outside-1_0_9" maskUnits="userSpaceOnUse" x="-0.9" y="-0.9" width="19" height="22" fill="black">
<rect fill="white" x="-0.9" y="-0.9" width="19" height="22"/>
<path d="M8.71328 12.807C10.8627 12.807 12.9314 12.9718 14.4857 13.5004C15.2668 13.766 15.9733 14.1418 16.4906 14.684C17.0249 15.2442 17.3265 15.9515 17.3266 16.7895C17.3266 17.6292 17.0223 18.3368 16.4848 18.8949C15.965 19.4345 15.2559 19.8055 14.474 20.0678C12.9177 20.5898 10.85 20.7494 8.71328 20.7494C6.56407 20.7494 4.4953 20.5845 2.94082 20.0561C2.15978 19.7905 1.45325 19.4156 0.935938 18.8734C0.401349 18.3132 0.100081 17.6053 0.1 16.767C0.100033 15.9271 0.40424 15.2197 0.941797 14.6615C1.46167 14.1219 2.17064 13.7499 2.95254 13.4877C4.50895 12.9659 6.5768 12.8071 8.71328 12.807ZM8.71328 14.307C6.60883 14.3071 4.74491 14.4688 3.43008 14.9096C2.77678 15.1286 2.31463 15.3989 2.02285 15.7016C1.74892 15.9859 1.60003 16.323 1.6 16.767C1.60008 17.2125 1.74858 17.5509 2.02188 17.8373C2.31257 18.1419 2.77263 18.4146 3.42422 18.6361C4.73527 19.0818 6.59842 19.2494 8.71328 19.2494C10.8181 19.2494 12.6828 19.0869 13.9975 18.6459C14.6506 18.4268 15.1121 18.1566 15.4037 17.8539C15.6776 17.5696 15.8266 17.2332 15.8266 16.7895C15.8265 16.3442 15.678 16.0056 15.4047 15.7191C15.114 15.4146 14.6537 15.1418 14.0023 14.9203C12.6915 14.4746 10.8281 14.307 8.71328 14.307ZM8.71426 0.1C11.8919 0.100264 14.4669 2.67533 14.4672 5.85293C14.4672 9.03055 11.8922 11.6075 8.71426 11.6078H8.67617C5.50848 11.5971 2.94865 9.01936 2.95938 5.85098C2.96067 2.67392 5.53728 0.1 8.71426 0.1ZM8.71426 1.52773C6.32522 1.52773 4.38735 3.46434 4.38711 5.85293V5.85586C4.37908 8.2356 6.3027 10.172 8.68105 10.1801H8.71426C11.1028 10.1798 13.0395 8.24195 13.0395 5.85293C13.0392 3.46431 11.1029 1.528 8.71426 1.52773Z"/>
</mask>
<path d="M8.71328 12.807C10.8627 12.807 12.9314 12.9718 14.4857 13.5004C15.2668 13.766 15.9733 14.1418 16.4906 14.684C17.0249 15.2442 17.3265 15.9515 17.3266 16.7895C17.3266 17.6292 17.0223 18.3368 16.4848 18.8949C15.965 19.4345 15.2559 19.8055 14.474 20.0678C12.9177 20.5898 10.85 20.7494 8.71328 20.7494C6.56407 20.7494 4.4953 20.5845 2.94082 20.0561C2.15978 19.7905 1.45325 19.4156 0.935938 18.8734C0.401349 18.3132 0.100081 17.6053 0.1 16.767C0.100033 15.9271 0.40424 15.2197 0.941797 14.6615C1.46167 14.1219 2.17064 13.7499 2.95254 13.4877C4.50895 12.9659 6.5768 12.8071 8.71328 12.807ZM8.71328 14.307C6.60883 14.3071 4.74491 14.4688 3.43008 14.9096C2.77678 15.1286 2.31463 15.3989 2.02285 15.7016C1.74892 15.9859 1.60003 16.323 1.6 16.767C1.60008 17.2125 1.74858 17.5509 2.02188 17.8373C2.31257 18.1419 2.77263 18.4146 3.42422 18.6361C4.73527 19.0818 6.59842 19.2494 8.71328 19.2494C10.8181 19.2494 12.6828 19.0869 13.9975 18.6459C14.6506 18.4268 15.1121 18.1566 15.4037 17.8539C15.6776 17.5696 15.8266 17.2332 15.8266 16.7895C15.8265 16.3442 15.678 16.0056 15.4047 15.7191C15.114 15.4146 14.6537 15.1418 14.0023 14.9203C12.6915 14.4746 10.8281 14.307 8.71328 14.307ZM8.71426 0.1C11.8919 0.100264 14.4669 2.67533 14.4672 5.85293C14.4672 9.03055 11.8922 11.6075 8.71426 11.6078H8.67617C5.50848 11.5971 2.94865 9.01936 2.95938 5.85098C2.96067 2.67392 5.53728 0.1 8.71426 0.1ZM8.71426 1.52773C6.32522 1.52773 4.38735 3.46434 4.38711 5.85293V5.85586C4.37908 8.2356 6.3027 10.172 8.68105 10.1801H8.71426C11.1028 10.1798 13.0395 8.24195 13.0395 5.85293C13.0392 3.46431 11.1029 1.528 8.71426 1.52773Z" fill="#8D8D8D"/>
<path d="M8.71328 12.807V12.707H8.71328L8.71328 12.807ZM14.4857 13.5004L14.5179 13.4057L14.5179 13.4057L14.4857 13.5004ZM16.4906 14.684L16.563 14.615L16.563 14.615L16.4906 14.684ZM17.3266 16.7895H17.4266V16.7894L17.3266 16.7895ZM16.4848 18.8949L16.5568 18.9643L16.5568 18.9643L16.4848 18.8949ZM14.474 20.0678L14.5058 20.1626H14.5058L14.474 20.0678ZM8.71328 20.7494L8.71328 20.8494H8.71328V20.7494ZM2.94082 20.0561L2.90863 20.1507L2.90863 20.1507L2.94082 20.0561ZM0.935938 18.8734L0.863587 18.9425L0.86359 18.9425L0.935938 18.8734ZM0.1 16.767L0 16.767V16.767L0.1 16.767ZM0.941797 14.6615L0.869781 14.5921L0.869771 14.5922L0.941797 14.6615ZM2.95254 13.4877L2.92075 13.3929L2.92075 13.3929L2.95254 13.4877ZM8.71328 14.307V14.207H8.71328L8.71328 14.307ZM3.43008 14.9096L3.3983 14.8148L3.39829 14.8148L3.43008 14.9096ZM2.02285 15.7016L1.95086 15.6322L1.95083 15.6322L2.02285 15.7016ZM1.6 16.767L1.5 16.767V16.767L1.6 16.767ZM2.02188 17.8373L1.94952 17.9063L1.94953 17.9063L2.02188 17.8373ZM3.42422 18.6361L3.39203 18.7308H3.39204L3.42422 18.6361ZM8.71328 19.2494L8.71328 19.3494H8.71328V19.2494ZM13.9975 18.6459L14.0293 18.7407L14.0293 18.7407L13.9975 18.6459ZM15.4037 17.8539L15.4757 17.9233L15.4757 17.9233L15.4037 17.8539ZM15.8266 16.7895H15.9266V16.7894L15.8266 16.7895ZM15.4047 15.7191L15.477 15.6501L15.477 15.6501L15.4047 15.7191ZM14.0023 14.9203L14.0345 14.8256L14.0345 14.8256L14.0023 14.9203ZM8.71426 0.1L8.71427 0H8.71426V0.1ZM14.4672 5.85293H14.5672V5.85292L14.4672 5.85293ZM8.71426 11.6078V11.7078H8.71427L8.71426 11.6078ZM8.67617 11.6078L8.67583 11.7078H8.67617V11.6078ZM2.95938 5.85098L3.05937 5.85132V5.85102L2.95938 5.85098ZM8.71426 1.52773L8.71427 1.42773H8.71426V1.52773ZM4.38711 5.85293L4.28711 5.85292V5.85293H4.38711ZM4.38711 5.85586L4.48711 5.8562V5.85586H4.38711ZM8.68105 10.1801L8.68072 10.2801H8.68105V10.1801ZM8.71426 10.1801V10.2801H8.71427L8.71426 10.1801ZM13.0395 5.85293H13.1395V5.85292L13.0395 5.85293ZM8.71328 12.807V12.907C10.8604 12.907 12.9154 13.072 14.4535 13.5951L14.4857 13.5004L14.5179 13.4057C12.9474 12.8716 10.865 12.707 8.71328 12.707V12.807ZM14.4857 13.5004L14.4535 13.5951C15.226 13.8578 15.9161 14.2267 16.4183 14.753L16.4906 14.684L16.563 14.615C16.0306 14.057 15.3077 13.6743 14.5179 13.4057L14.4857 13.5004ZM16.4906 14.684L16.4183 14.753C16.9352 15.2949 17.2265 15.9777 17.2266 16.7895L17.3266 16.7895L17.4266 16.7894C17.4265 15.9254 17.1147 15.1934 16.563 14.615L16.4906 14.684ZM17.3266 16.7895H17.2266C17.2266 17.6029 16.9327 18.2857 16.4127 18.8255L16.4848 18.8949L16.5568 18.9643C17.1119 18.3879 17.4266 17.6556 17.4266 16.7895H17.3266ZM16.4848 18.8949L16.4127 18.8255C15.9082 19.3493 15.2156 19.7135 14.4422 19.973L14.474 20.0678L14.5058 20.1626C15.2962 19.8975 16.0217 19.5197 16.5568 18.9643L16.4848 18.8949ZM14.474 20.0678L14.4422 19.973C12.902 20.4896 10.8478 20.6494 8.71328 20.6494V20.7494V20.8494C10.8522 20.8494 12.9335 20.69 14.5058 20.1626L14.474 20.0678ZM8.71328 20.7494L8.71328 20.6494C6.56638 20.6494 4.51127 20.4843 2.97301 19.9614L2.94082 20.0561L2.90863 20.1507C4.47932 20.6847 6.56175 20.8494 8.71328 20.8494L8.71328 20.7494ZM2.94082 20.0561L2.97301 19.9614C2.20055 19.6987 1.51046 19.3307 1.00829 18.8044L0.935938 18.8734L0.86359 18.9425C1.39605 19.5005 2.11901 19.8822 2.90863 20.1507L2.94082 20.0561ZM0.935938 18.8734L1.00829 18.8044C0.491146 18.2624 0.200079 17.5791 0.2 16.767L0.1 16.767L0 16.767C8.38488e-05 17.6314 0.311552 18.3639 0.863587 18.9425L0.935938 18.8734ZM0.1 16.767L0.2 16.767C0.200032 15.9535 0.493858 15.2708 1.01382 14.7309L0.941797 14.6615L0.869771 14.5922C0.314623 15.1685 3.41982e-05 15.9007 0 16.767L0.1 16.767ZM0.941797 14.6615L1.01381 14.7309C1.51848 14.2071 2.211 13.8418 2.98433 13.5825L2.95254 13.4877L2.92075 13.3929C2.13028 13.6579 1.40486 14.0367 0.869781 14.5921L0.941797 14.6615ZM2.95254 13.4877L2.98433 13.5825C4.52465 13.0661 6.57894 12.9071 8.71328 12.907L8.71328 12.807L8.71328 12.707C6.57465 12.7071 4.49326 12.8657 2.92075 13.3929L2.95254 13.4877ZM8.71328 14.307L8.71328 14.207C6.60673 14.2071 4.72924 14.3686 3.3983 14.8148L3.43008 14.9096L3.46186 15.0044C4.76058 14.5691 6.61092 14.4071 8.71328 14.407L8.71328 14.307ZM3.43008 14.9096L3.39829 14.8148C2.73642 15.0367 2.25784 15.3138 1.95086 15.6322L2.02285 15.7016L2.09484 15.771C2.37143 15.4841 2.81714 15.2205 3.46187 15.0044L3.43008 14.9096ZM2.02285 15.7016L1.95083 15.6322C1.65932 15.9348 1.50003 16.2966 1.5 16.767L1.6 16.767L1.7 16.767C1.70003 16.3494 1.83852 16.037 2.09487 15.7709L2.02285 15.7016ZM1.6 16.767L1.5 16.767C1.50008 17.2387 1.65886 17.6017 1.94952 17.9063L2.02188 17.8373L2.09423 17.7683C1.83831 17.5 1.70007 17.1862 1.7 16.767L1.6 16.767ZM2.02188 17.8373L1.94953 17.9063C2.25531 18.2268 2.73174 18.5063 3.39203 18.7308L3.42422 18.6361L3.45641 18.5415C2.81351 18.3229 2.36983 18.0571 2.09422 17.7683L2.02188 17.8373ZM3.42422 18.6361L3.39204 18.7308C4.71932 19.182 6.59615 19.3494 8.71328 19.3494L8.71328 19.2494L8.71328 19.1494C6.60068 19.1494 4.75121 18.9816 3.4564 18.5415L3.42422 18.6361ZM8.71328 19.2494V19.3494C10.8202 19.3494 12.6985 19.1871 14.0293 18.7407L13.9975 18.6459L13.9657 18.5511C12.6671 18.9867 10.816 19.1494 8.71328 19.1494V19.2494ZM13.9975 18.6459L14.0293 18.7407C14.691 18.5187 15.1689 18.2417 15.4757 17.9233L15.4037 17.8539L15.3317 17.7845C15.0552 18.0714 14.6102 18.3348 13.9657 18.5511L13.9975 18.6459ZM15.4037 17.8539L15.4757 17.9233C15.7671 17.6207 15.9266 17.2597 15.9266 16.7895H15.8266H15.7266C15.7266 17.2067 15.588 17.5184 15.3317 17.7845L15.4037 17.8539ZM15.8266 16.7895L15.9266 16.7894C15.9265 16.3179 15.7677 15.9548 15.477 15.6501L15.4047 15.7191L15.3323 15.7882C15.5882 16.0564 15.7265 16.3704 15.7266 16.7895L15.8266 16.7895ZM15.4047 15.7191L15.477 15.6501C15.1713 15.3298 14.6946 15.0501 14.0345 14.8256L14.0023 14.9203L13.9701 15.015C14.6128 15.2336 15.0568 15.4995 15.3323 15.7882L15.4047 15.7191ZM14.0023 14.9203L14.0345 14.8256C12.7074 14.3744 10.8303 14.207 8.71328 14.207V14.307V14.407C10.8258 14.407 12.6755 14.5748 13.9702 15.015L14.0023 14.9203ZM8.71426 0.1L8.71425 0.2C11.8366 0.20026 14.3669 2.73056 14.3672 5.85294L14.4672 5.85293L14.5672 5.85292C14.5669 2.6201 11.9471 0.000269003 8.71427 0L8.71426 0.1ZM14.4672 5.85293H14.3672C14.3672 8.97536 11.8369 11.5076 8.71425 11.5078L8.71426 11.6078L8.71427 11.7078C11.9475 11.7075 14.5672 9.08573 14.5672 5.85293H14.4672ZM8.71426 11.6078V11.5078H8.67617V11.6078V11.7078H8.71426V11.6078ZM8.67617 11.6078L8.67651 11.5078C5.56406 11.4973 3.04883 8.96449 3.05937 5.85132L2.95938 5.85098L2.85938 5.85064C2.84846 9.07424 5.45289 11.6969 8.67583 11.7078L8.67617 11.6078ZM2.95938 5.85098L3.05937 5.85102C3.06065 2.72921 5.59246 0.2 8.71426 0.2V0.1V0C5.4821 0 2.8607 2.61863 2.85938 5.85094L2.95938 5.85098ZM8.71426 1.52773V1.42773C6.27004 1.42773 4.28736 3.40906 4.28711 5.85292L4.38711 5.85293L4.48711 5.85294C4.48735 3.51961 6.38041 1.62773 8.71426 1.62773V1.52773ZM4.38711 5.85293H4.28711V5.85586H4.38711H4.48711V5.85293H4.38711ZM4.38711 5.85586L4.28711 5.85552C4.27889 8.29048 6.24712 10.2718 8.68072 10.2801L8.68105 10.1801L8.68139 10.0801C6.35828 10.0722 4.47926 8.18073 4.48711 5.8562L4.38711 5.85586ZM8.68105 10.1801V10.2801H8.71426V10.1801V10.0801H8.68105V10.1801ZM8.71426 10.1801L8.71427 10.2801C11.1581 10.2798 13.1395 8.29714 13.1395 5.85293H13.0395H12.9395C12.9395 8.18677 11.0476 10.0798 8.71425 10.0801L8.71426 10.1801ZM13.0395 5.85293L13.1395 5.85292C13.1392 3.40908 11.1581 1.428 8.71427 1.42773L8.71426 1.52773L8.71425 1.62773C11.0476 1.62799 12.9392 3.51954 12.9395 5.85294L13.0395 5.85293Z" fill="#8D8D8D" mask="url(#path-1-outside-1_0_9)"/>
</g>
</mask>
<g mask="url(#mask0_0_9)">
<path id="Rectangle 346243202" d="M-2.15 -1.00062H9.85V5.99938H17.35L18.35 21.4994L-2.15 21.9994V-1.00062Z" fill="#8D8D8D"/>
</g>
</g>
</svg>
