<svg preserveAspectRatio="none" width="100%" height="100%" overflow="visible" style="display: block;" viewBox="0 0 23.6444 23.0331" fill="none" xmlns="http://www.w3.org/2000/svg">
<g id="Group 42">
<g id="Mask group">
<mask id="mask0_0_4" style="mask-type:alpha" maskUnits="userSpaceOnUse" x="0" y="2" width="21" height="22">
<path id="Vector" d="M10.5 21.4581C5.57836 21.4581 1.575 17.4547 1.575 12.5331C1.575 7.61148 5.57836 3.60811 10.5 3.60811C15.4216 3.60811 19.425 7.61148 19.425 12.5331C19.425 17.4547 15.4216 21.4581 10.5 21.4581ZM10.5 2.03311C4.70114 2.03311 0 6.7352 0 12.5331C0 18.331 4.70114 23.0331 10.5 23.0331C16.2989 23.0331 21 18.332 21 12.5331C21 6.73425 16.2989 2.03311 10.5 2.03311Z" fill="#8D8D8D"/>
</mask>
<g mask="url(#mask0_0_4)">
<path id="Rectangle 346243197" d="M-1 0.0331116H14L16.5 10.5331L23 8.03311L22.5 15.5331L17 24.0331L-1 22.0331V0.0331116Z" fill="#8D8D8D"/>
</g>
</g>
<g id="Mask group_2">
<mask id="mask1_0_4" style="mask-type:alpha" maskUnits="userSpaceOnUse" x="14" y="0" width="10" height="10">
<path id="Rectangle 346243199" d="M15.2313 0L23.6444 0.543989L22.6934 7.99204L18.8636 9.15244L14.6873 8.41306L16.3313 4.76459L15.2313 0Z" fill="#D9D9D9"/>
</mask>
<g mask="url(#mask1_0_4)">
<path id="Vector_2" d="M11.6598 18.9418C7.05914 18.6444 3.55884 14.6601 3.85632 10.0594C4.1538 5.45878 8.13806 1.95847 12.7387 2.25595C17.3394 2.55343 20.8397 6.53769 20.5422 11.1384C20.2447 15.739 16.2605 19.2393 11.6598 18.9418ZM12.8339 0.783666C7.41324 0.433164 2.73448 4.54445 2.38403 9.96425C2.03359 15.384 6.14393 20.0636 11.5646 20.4141C16.9853 20.7646 21.664 16.6542 22.0145 11.2336C22.365 5.81287 18.2546 1.13417 12.8339 0.783666Z" fill="#8D8D8D"/>
</g>
</g>
<path id="Vector_3" d="M11.2577 13.122C11.2208 13.1952 11.1612 13.2545 11.0878 13.2909L8.38262 14.6511L9.74189 11.946C9.77819 11.8721 9.83794 11.8124 9.9118 11.7761L12.6179 10.4149L11.2577 13.122ZM14.6015 7.76028C14.4959 7.76122 14.392 7.78671 14.2979 7.83474L9.21498 10.3891C8.84421 10.5764 8.54314 10.8774 8.35589 11.2482L5.80152 16.3321C5.56289 16.8065 5.93516 17.3057 6.39716 17.3057C6.5027 17.3053 6.60668 17.2802 6.70071 17.2322L11.7846 14.6779C12.1559 14.4917 12.4576 14.1901 12.6437 13.8188L15.1981 8.73487C15.4367 8.26047 15.0644 7.76028 14.6015 7.76028Z" fill="#8D8D8D"/>
</g>
</svg>
