<svg preserveAspectRatio="none" width="100%" height="100%" overflow="visible" style="display: block;" viewBox="0 0 13.1289 15.7514" fill="none" xmlns="http://www.w3.org/2000/svg">
<g id="Mask group">
<mask id="mask0_0_4" style="mask-type:alpha" maskUnits="userSpaceOnUse" x="-1" y="0" width="15" height="16">
<g id="Union">
<mask id="path-1-outside-1_0_4" maskUnits="userSpaceOnUse" x="-1" y="-0.9" width="15" height="17" fill="black">
<rect fill="white" x="-1" y="-0.9" width="15" height="17"/>
<path d="M6.56543 9.4877C8.15906 9.48772 9.71553 9.60956 10.8965 10.0111C11.4908 10.2133 12.0451 10.5042 12.457 10.9359C12.8863 11.3859 13.1289 11.9574 13.1289 12.6283C13.1288 13.3006 12.8838 13.8715 12.4521 14.3197C12.0381 14.7494 11.4815 15.0382 10.8867 15.2377C9.7046 15.6341 8.14926 15.7513 6.56543 15.7514C4.97173 15.7513 3.41457 15.6304 2.2334 15.2289C1.63896 15.0268 1.08492 14.735 0.672852 14.3031C0.243575 13.8532 5.81001e-05 13.2817 0 12.6107C9.0921e-05 11.9383 0.246014 11.3667 0.677734 10.9184C1.0918 10.4887 1.64847 10.2008 2.24316 10.0014C3.4255 9.605 4.98152 9.48772 6.56543 9.4877ZM6.56543 10.9877C5.01327 10.9877 3.66053 11.1078 2.71973 11.4232C2.25342 11.5796 1.94378 11.7664 1.75781 11.9594C1.58989 12.1338 1.50008 12.3343 1.5 12.6107C1.50005 12.889 1.5898 13.0918 1.75781 13.268C1.9432 13.4622 2.252 13.65 2.7168 13.808C3.65454 14.1267 5.00615 14.2513 6.56543 14.2514C8.11726 14.2513 9.46957 14.1312 10.4102 13.8158C10.8763 13.6594 11.1861 13.4726 11.3721 13.2797C11.5401 13.1052 11.6288 12.9046 11.6289 12.6283C11.6289 12.3501 11.5392 12.1473 11.3711 11.9711C11.1857 11.777 10.8776 11.589 10.4131 11.4311C9.47555 11.1123 8.12457 10.9877 6.56543 10.9877ZM6.56543 0.1C9.01805 0.100093 11.0057 2.08782 11.0059 4.54043C11.0059 6.99297 9.01834 8.98174 6.56543 8.98184H6.53613C4.09135 8.97318 2.11598 6.98371 2.12402 4.53848C2.12522 2.08659 4.11368 0.100124 6.56543 0.1ZM6.56543 1.52773C4.90162 1.52786 3.5519 2.87701 3.55176 4.54043V4.54238C3.54614 6.19921 4.88539 7.54717 6.54102 7.55313H6.56543C8.22897 7.55303 9.57715 6.20438 9.57715 4.54043C9.577 2.8768 8.22908 1.52783 6.56543 1.52773Z"/>
</mask>
<path d="M6.56543 9.4877C8.15906 9.48772 9.71553 9.60956 10.8965 10.0111C11.4908 10.2133 12.0451 10.5042 12.457 10.9359C12.8863 11.3859 13.1289 11.9574 13.1289 12.6283C13.1288 13.3006 12.8838 13.8715 12.4521 14.3197C12.0381 14.7494 11.4815 15.0382 10.8867 15.2377C9.7046 15.6341 8.14926 15.7513 6.56543 15.7514C4.97173 15.7513 3.41457 15.6304 2.2334 15.2289C1.63896 15.0268 1.08492 14.735 0.672852 14.3031C0.243575 13.8532 5.81001e-05 13.2817 0 12.6107C9.0921e-05 11.9383 0.246014 11.3667 0.677734 10.9184C1.0918 10.4887 1.64847 10.2008 2.24316 10.0014C3.4255 9.605 4.98152 9.48772 6.56543 9.4877ZM6.56543 10.9877C5.01327 10.9877 3.66053 11.1078 2.71973 11.4232C2.25342 11.5796 1.94378 11.7664 1.75781 11.9594C1.58989 12.1338 1.50008 12.3343 1.5 12.6107C1.50005 12.889 1.5898 13.0918 1.75781 13.268C1.9432 13.4622 2.252 13.65 2.7168 13.808C3.65454 14.1267 5.00615 14.2513 6.56543 14.2514C8.11726 14.2513 9.46957 14.1312 10.4102 13.8158C10.8763 13.6594 11.1861 13.4726 11.3721 13.2797C11.5401 13.1052 11.6288 12.9046 11.6289 12.6283C11.6289 12.3501 11.5392 12.1473 11.3711 11.9711C11.1857 11.777 10.8776 11.589 10.4131 11.4311C9.47555 11.1123 8.12457 10.9877 6.56543 10.9877ZM6.56543 0.1C9.01805 0.100093 11.0057 2.08782 11.0059 4.54043C11.0059 6.99297 9.01834 8.98174 6.56543 8.98184H6.53613C4.09135 8.97318 2.11598 6.98371 2.12402 4.53848C2.12522 2.08659 4.11368 0.100124 6.56543 0.1ZM6.56543 1.52773C4.90162 1.52786 3.5519 2.87701 3.55176 4.54043V4.54238C3.54614 6.19921 4.88539 7.54717 6.54102 7.55313H6.56543C8.22897 7.55303 9.57715 6.20438 9.57715 4.54043C9.577 2.8768 8.22908 1.52783 6.56543 1.52773Z" fill="#8D8D8D"/>
<path d="M6.56543 9.4877L6.56543 9.38769H6.56543L6.56543 9.4877ZM10.8965 10.0111L10.9287 9.91646L10.9287 9.91646L10.8965 10.0111ZM12.457 10.9359L12.5294 10.8669L12.5294 10.8669L12.457 10.9359ZM13.1289 12.6283L13.2289 12.6283V12.6283H13.1289ZM12.4521 14.3197L12.5242 14.3891L12.5242 14.3891L12.4521 14.3197ZM10.8867 15.2377L10.9185 15.3325L10.9185 15.3325L10.8867 15.2377ZM6.56543 15.7514L6.56543 15.8514H6.56543L6.56543 15.7514ZM2.2334 15.2289L2.20121 15.3236L2.20121 15.3236L2.2334 15.2289ZM0.672852 14.3031L0.600497 14.3722L0.600504 14.3722L0.672852 14.3031ZM0 12.6107L-0.1 12.6107V12.6108L0 12.6107ZM0.677734 10.9184L0.605729 10.849L0.605704 10.849L0.677734 10.9184ZM2.24316 10.0014L2.21138 9.90655L2.21137 9.90656L2.24316 10.0014ZM6.56543 10.9877L6.56543 10.8877H6.56543L6.56543 10.9877ZM2.71973 11.4232L2.68794 11.3284L2.68793 11.3284L2.71973 11.4232ZM1.75781 11.9594L1.6858 11.89L1.68577 11.89L1.75781 11.9594ZM1.5 12.6107L1.4 12.6107V12.6108L1.5 12.6107ZM1.75781 13.268L1.68545 13.337L1.68546 13.337L1.75781 13.268ZM2.7168 13.808L2.6846 13.9027L2.68462 13.9027L2.7168 13.808ZM6.56543 14.2514L6.56543 14.3514H6.56543L6.56543 14.2514ZM10.4102 13.8158L10.4419 13.9106L10.442 13.9106L10.4102 13.8158ZM11.3721 13.2797L11.4441 13.3491L11.4441 13.3491L11.3721 13.2797ZM11.6289 12.6283L11.7289 12.6284V12.6283H11.6289ZM11.3711 11.9711L11.4434 11.9021L11.4434 11.902L11.3711 11.9711ZM10.4131 11.4311L10.4453 11.3364L10.4453 11.3364L10.4131 11.4311ZM6.56543 0.1L6.56543 0H6.56542L6.56543 0.1ZM11.0059 4.54043H11.1059V4.54042L11.0059 4.54043ZM6.56543 8.98184V9.08184H6.56543L6.56543 8.98184ZM6.53613 8.98184L6.53578 9.08184H6.53613V8.98184ZM2.12402 4.53848L2.22402 4.53881V4.53853L2.12402 4.53848ZM6.56543 1.52773L6.56544 1.42773H6.56542L6.56543 1.52773ZM3.55176 4.54043L3.45176 4.54042V4.54043H3.55176ZM3.55176 4.54238L3.65176 4.54272V4.54238H3.55176ZM6.54102 7.55313L6.54066 7.65312H6.54102V7.55313ZM6.56543 7.55313V7.65312H6.56544L6.56543 7.55313ZM9.57715 4.54043H9.67715V4.54042L9.57715 4.54043ZM6.56543 9.4877L6.56543 9.5877C8.15673 9.58772 9.69954 9.70975 10.8643 10.1058L10.8965 10.0111L10.9287 9.91646C9.73152 9.50937 8.1614 9.38772 6.56543 9.38769L6.56543 9.4877ZM10.8965 10.0111L10.8643 10.1058C11.45 10.305 11.9878 10.5891 12.3847 11.005L12.457 10.9359L12.5294 10.8669C12.1023 10.4193 11.5316 10.1216 10.9287 9.91646L10.8965 10.0111ZM12.457 10.9359L12.3847 11.005C12.7965 11.4366 13.0289 11.9835 13.0289 12.6283H13.1289H13.2289C13.2289 11.9312 12.9761 11.3352 12.5294 10.8669L12.457 10.9359ZM13.1289 12.6283L13.0289 12.6283C13.0288 13.2742 12.7941 13.8204 12.3801 14.2504L12.4521 14.3197L12.5242 14.3891C12.9734 13.9226 13.2288 13.327 13.2289 12.6283L13.1289 12.6283ZM12.4521 14.3197L12.3801 14.2503C11.9813 14.6643 11.4411 14.9463 10.8549 15.1429L10.8867 15.2377L10.9185 15.3325C11.5219 15.1301 12.0949 14.8346 12.5242 14.3891L12.4521 14.3197ZM10.8867 15.2377L10.8549 15.1429C9.68889 15.5339 8.14709 15.6513 6.56543 15.6514L6.56543 15.7514L6.56543 15.8514C8.15142 15.8513 9.7203 15.7343 10.9185 15.3325L10.8867 15.2377ZM6.56543 15.7514L6.56543 15.6514C4.97401 15.6513 3.43052 15.5303 2.26558 15.1342L2.2334 15.2289L2.20121 15.3236C3.39861 15.7306 4.96945 15.8513 6.56543 15.8514L6.56543 15.7514ZM2.2334 15.2289L2.26559 15.1342C1.6799 14.9351 1.1422 14.6501 0.745199 14.2341L0.672852 14.3031L0.600504 14.3722C1.02763 14.8198 1.59803 15.1185 2.20121 15.3236L2.2334 15.2289ZM0.672852 14.3031L0.745206 14.2341C0.333309 13.8023 0.100056 13.2555 0.1 12.6107L0 12.6107L-0.1 12.6108C-0.0999396 13.308 0.153841 13.904 0.600497 14.3722L0.672852 14.3031ZM0 12.6107L0.1 12.6108C0.100087 11.9647 0.335583 11.4178 0.749765 10.9877L0.677734 10.9184L0.605704 10.849C0.156445 11.3155 -0.0999055 11.9118 -0.1 12.6107L0 12.6107ZM0.677734 10.9184L0.74974 10.9878C1.14857 10.5739 1.68877 10.2928 2.27496 10.0962L2.24316 10.0014L2.21137 9.90656C1.60818 10.1088 1.03503 10.4035 0.605729 10.849L0.677734 10.9184ZM2.24316 10.0014L2.27495 10.0962C3.44121 9.7052 4.98368 9.58772 6.56543 9.5877L6.56543 9.4877L6.56543 9.38769C4.97936 9.38772 3.4098 9.50479 2.21138 9.90655L2.24316 10.0014ZM6.56543 10.9877L6.56543 10.8877C5.01119 10.8877 3.64487 11.0076 2.68794 11.3284L2.71973 11.4232L2.75151 11.5181C3.6762 11.208 5.01535 11.0877 6.56543 11.0877L6.56543 10.9877ZM2.71973 11.4232L2.68793 11.3284C2.21304 11.4877 1.88696 11.6812 1.6858 11.89L1.75781 11.9594L1.82982 12.0288C2.00059 11.8515 2.29379 11.6716 2.75153 11.5181L2.71973 11.4232ZM1.75781 11.9594L1.68577 11.89C1.50033 12.0827 1.40009 12.3078 1.4 12.6107L1.5 12.6107L1.6 12.6108C1.60007 12.3608 1.67945 12.185 1.82986 12.0287L1.75781 11.9594ZM1.5 12.6107L1.4 12.6108C1.40006 12.9151 1.50001 13.1426 1.68545 13.337L1.75781 13.268L1.83017 13.1989C1.6796 13.0411 1.60005 12.8628 1.6 12.6107L1.5 12.6107ZM1.75781 13.268L1.68546 13.337C1.88601 13.5472 2.21127 13.7417 2.6846 13.9027L2.7168 13.808L2.74899 13.7133C2.29273 13.5582 2.00038 13.3773 1.83016 13.1989L1.75781 13.268ZM2.7168 13.808L2.68462 13.9027C3.63859 14.2269 5.00387 14.3513 6.56543 14.3514L6.56543 14.2514L6.56543 14.1514C5.00842 14.1513 3.67049 14.0265 2.74898 13.7133L2.7168 13.808ZM6.56543 14.2514L6.56543 14.3514C8.11935 14.3513 9.48524 14.2314 10.4419 13.9106L10.4102 13.8158L10.3784 13.721C9.4539 14.031 8.11518 14.1513 6.56543 14.1514L6.56543 14.2514ZM10.4102 13.8158L10.442 13.9106C10.9166 13.7514 11.2429 13.5578 11.4441 13.3491L11.3721 13.2797L11.3001 13.2103C11.1293 13.3874 10.8359 13.5675 10.3783 13.721L10.4102 13.8158ZM11.3721 13.2797L11.4441 13.3491C11.6299 13.1561 11.7288 12.9308 11.7289 12.6284L11.6289 12.6283L11.5289 12.6283C11.5288 12.8785 11.4503 13.0543 11.3 13.2103L11.3721 13.2797ZM11.6289 12.6283H11.7289C11.7289 12.324 11.629 12.0965 11.4434 11.9021L11.3711 11.9711L11.2987 12.0401C11.4494 12.198 11.5289 12.3763 11.5289 12.6283H11.6289ZM11.3711 11.9711L11.4434 11.902C11.2429 11.6921 10.9184 11.4973 10.4453 11.3364L10.4131 11.4311L10.3809 11.5257C10.8367 11.6808 11.1284 11.8618 11.2988 12.0402L11.3711 11.9711ZM10.4131 11.4311L10.4453 11.3364C9.49151 11.0121 8.12685 10.8877 6.56543 10.8877L6.56543 10.9877L6.56543 11.0877C8.1223 11.0877 9.45959 11.2125 10.3809 11.5257L10.4131 11.4311ZM6.56543 0.1L6.56543 0.2C8.96282 0.200091 10.9057 2.14305 10.9059 4.54044L11.0059 4.54043L11.1059 4.54042C11.1057 2.03259 9.07328 9.55984e-05 6.56543 0L6.56543 0.1ZM11.0059 4.54043H10.9059C10.9059 6.93777 8.96308 8.88174 6.56543 8.88184L6.56543 8.98184L6.56543 9.08184C9.0736 9.08174 11.1059 7.04817 11.1059 4.54043H11.0059ZM6.56543 8.98184V8.88184H6.53613V8.98184V9.08184H6.56543V8.98184ZM6.53613 8.98184L6.53649 8.88184C4.14695 8.87338 2.21617 6.92884 2.22402 4.53881L2.12402 4.53848L2.02402 4.53815C2.0158 7.03857 4.03576 9.07299 6.53578 9.08184L6.53613 8.98184ZM2.12402 4.53848L2.22402 4.53853C2.2252 2.14188 4.16886 0.200121 6.56543 0.2L6.56543 0.1L6.56542 0C4.05849 0.000126511 2.02525 2.0313 2.02402 4.53843L2.12402 4.53848ZM6.56543 1.52773L6.56542 1.42773C4.84642 1.42786 3.45191 2.82174 3.45176 4.54042L3.55176 4.54043L3.65176 4.54044C3.6519 2.93227 4.95681 1.62785 6.56544 1.62773L6.56543 1.52773ZM3.55176 4.54043H3.45176V4.54238H3.55176H3.65176V4.54043H3.55176ZM3.55176 4.54238L3.45176 4.54204C3.44596 6.2541 4.82981 7.64697 6.54066 7.65312L6.54102 7.55313L6.54138 7.45313C4.94097 7.44737 3.64633 6.14433 3.65176 4.54272L3.55176 4.54238ZM6.54102 7.55313V7.65312H6.56543V7.55313V7.45313H6.54102V7.55313ZM6.56543 7.55313L6.56544 7.65312C8.28423 7.65303 9.67715 6.25958 9.67715 4.54043H9.57715H9.47715C9.47715 6.14918 8.17371 7.45303 6.56542 7.45313L6.56543 7.55313ZM9.57715 4.54043L9.67715 4.54042C9.677 2.82161 8.28435 1.42783 6.56544 1.42773L6.56543 1.52773L6.56542 1.62773C8.1738 1.62782 9.47701 2.93198 9.47715 4.54044L9.57715 4.54043Z" fill="#8D8D8D" mask="url(#path-1-outside-1_0_4)"/>
</g>
</mask>
<g mask="url(#mask0_0_4)">
<rect id="Rectangle 346243201" x="5.06586" y="-1.34337" width="6.43742" height="5.63274" fill="#8D8D8D"/>
</g>
</g>
</svg>
