<svg preserveAspectRatio="none" width="100%" height="100%" overflow="visible" style="display: block;" viewBox="0 0 14 14" fill="none" xmlns="http://www.w3.org/2000/svg">
<g id="Frame" clip-path="url(#clip0_0_4)">
<path id="Vector" d="M11.0845 2.80817C11.4675 2.80817 11.8468 2.88361 12.2007 3.03018C12.5545 3.17676 12.8761 3.3916 13.1469 3.66244C13.4177 3.93328 13.6326 4.25481 13.7791 4.60867C13.9257 4.96254 14.0012 5.34181 14.0012 5.72483V7.47483H12.8345V5.72483C12.8345 5.2607 12.6501 4.81559 12.3219 4.4874C11.9937 4.15921 11.5486 3.97483 11.0845 3.97483H0.5845C0.46093 3.97473 0.340586 3.93538 0.240819 3.86247C0.141051 3.78956 0.0670136 3.68685 0.0293808 3.56915C-0.00825205 3.45145 -0.00753614 3.32484 0.0314253 3.20758C0.0703867 3.09031 0.145581 2.98844 0.246167 2.91667L4.32833 0L5.005 0.949667L2.40333 2.80817H11.0833H11.0845ZM2.91783 10.9748C2.53481 10.9748 2.15554 10.8994 1.80167 10.7528C1.44781 10.6062 1.12628 10.3914 0.855438 10.1206C0.584601 9.84972 0.369761 9.52819 0.223185 9.17433C0.0766085 8.82046 0.00116666 8.44119 0.00116666 8.05817V6.30817H1.16783V8.05817C1.16783 8.5223 1.35221 8.96741 1.6804 9.2956C2.00859 9.62379 2.4537 9.80817 2.91783 9.80817H13.4178C13.5414 9.80827 13.6617 9.84762 13.7615 9.92053C13.8613 9.99344 13.9353 10.0961 13.973 10.2138C14.0106 10.3315 14.0099 10.4582 13.9709 10.5754C13.9319 10.6927 13.8568 10.7946 13.7562 10.8663L9.67283 13.783L8.99617 12.8333L11.5978 10.9748H2.91667H2.91783Z" fill="#666666"/>
</g>
<defs>
<clipPath id="clip0_0_4">
<rect width="14" height="14" fill="white"/>
</clipPath>
</defs>
</svg>
