<svg width="16" height="16" viewBox="0 0 16 16" fill="none" xmlns="http://www.w3.org/2000/svg">
<g id="Frame">
<path id="Vector" d="M10.7164 0.953672L9.90734 0.176271C9.82147 0.0903955 9.70396 0.0451977 9.58644 0.0451977H6.41356C6.29153 0.0451977 6.17853 0.0903955 6.09266 0.176271L5.28362 0.953672C5.19774 1.03503 5.08023 1.08475 4.96271 1.08475H2.0565C1.79887 1.08475 1.59096 1.29266 1.59096 1.55028V2.66215C1.59096 2.91977 1.79887 3.12768 2.0565 3.12768H13.9435C14.2011 3.12768 14.409 2.91977 14.409 2.66215V1.54576C14.409 1.28814 14.2011 1.08023 13.9435 1.08023H11.0373C10.9198 1.08023 10.8023 1.03503 10.7164 0.953672ZM2.09718 14.1062C2.08362 15.1141 2.89266 15.9412 3.90056 15.9548H12.0994C13.1073 15.9412 13.9164 15.1141 13.9028 14.1062V5.13446C13.9028 4.87684 13.6949 4.66893 13.4373 4.66893H2.55819C2.30056 4.66893 2.09266 4.87684 2.09266 5.13446V14.1062H2.09718ZM6.10621 12.4746H5.6452C5.38757 12.4746 5.17966 12.2667 5.17966 12.009V8.26667C5.17966 8.00904 5.38757 7.80113 5.6452 7.80113H6.10621C6.36384 7.80113 6.57175 8.00904 6.57175 8.26667V12.009C6.56723 12.2667 6.35932 12.4746 6.10621 12.4746ZM10.3729 12.4746H9.89379C9.63616 12.4746 9.42825 12.2667 9.42825 12.009V8.26667C9.42825 8.00904 9.63616 7.80113 9.89379 7.80113H10.3503C10.6034 7.80113 10.8113 8.00904 10.8158 8.26215L10.8384 12.0045C10.8384 12.2667 10.6305 12.4746 10.3729 12.4746Z" fill="#999999"/>
</g>
</svg>
