<svg width="18" height="18" viewBox="0 0 18 18" fill="none" xmlns="http://www.w3.org/2000/svg">
<path d="M9.68136 6.04269L9.71153 6.10093L11.8731 11.0425C11.9203 11.1504 11.9245 11.2722 11.885 11.3832C11.8455 11.4941 11.7653 11.5859 11.6605 11.6398C11.5558 11.6937 11.4345 11.7056 11.3212 11.6732C11.208 11.6409 11.1114 11.5666 11.0509 11.4655L11.0245 11.4136L10.4702 10.1467H8.10371L7.54995 11.4136C7.50274 11.5215 7.41617 11.6075 7.30785 11.6538C7.19953 11.7002 7.0776 11.7036 6.96689 11.6633C6.85618 11.6229 6.765 11.5419 6.71192 11.4367C6.65884 11.3315 6.64785 11.21 6.68118 11.097L6.70077 11.0425L8.86289 6.10093C8.89686 6.02362 8.95129 5.95705 9.02031 5.90841C9.08933 5.85977 9.17033 5.83089 9.25455 5.8249C9.33878 5.81891 9.42305 5.83602 9.49826 5.8744C9.57348 5.91279 9.63678 5.97097 9.68136 6.04269ZM9.28747 7.44193L8.50924 9.22022H10.0652L9.28695 7.44193H9.28747Z" fill="#999999"/>
<path d="M9.16359 2.11768C10.6941 2.11781 12.1776 2.64658 13.3632 3.61453C14.5488 4.58249 15.3637 5.93023 15.6701 7.42979C15.6845 7.49026 15.6866 7.55302 15.6763 7.61433C15.666 7.67563 15.6435 7.73424 15.61 7.78665C15.5766 7.83906 15.5329 7.8842 15.4817 7.91939C15.4304 7.95457 15.3726 7.97908 15.3117 7.99145C15.2508 8.00382 15.188 8.0038 15.127 7.99139C15.0661 7.97898 15.0083 7.95443 14.9571 7.91922C14.9059 7.884 14.8622 7.83883 14.8288 7.7864C14.7954 7.73396 14.7729 7.67534 14.7626 7.61403C14.5143 6.39798 13.8768 5.29584 12.9466 4.47419C12.0164 3.65253 10.844 3.15604 9.60655 3.05976C8.36914 2.96349 7.13403 3.27265 6.0879 3.94052C5.04178 4.6084 4.2415 5.59868 3.80806 6.76168L3.79217 6.80668L4.81711 6.46521C4.92412 6.42945 5.0405 6.43398 5.14441 6.47794C5.24832 6.5219 5.33261 6.60227 5.38147 6.70397L5.40264 6.75797C5.43844 6.86492 5.43399 6.98125 5.39013 7.08515C5.34627 7.18905 5.26601 7.27338 5.16441 7.32232L5.10988 7.3435L3.25694 7.96132C3.17987 7.98699 3.09741 7.99193 3.01782 7.97567C2.93824 7.9594 2.86433 7.92249 2.80352 7.86865C2.7427 7.8148 2.69711 7.74591 2.67132 7.66888C2.64553 7.59186 2.64045 7.5094 2.65659 7.42979C2.96294 5.93023 3.77782 4.58249 4.96341 3.61453C6.14899 2.64658 7.63252 2.11781 9.16306 2.11768H9.16359ZM15.0501 9.56015C15.1276 9.53028 15.2118 9.52181 15.2937 9.53563C15.3756 9.54944 15.4523 9.58504 15.5158 9.63868C15.5792 9.69232 15.627 9.76204 15.6543 9.84053C15.6815 9.91901 15.6872 10.0034 15.6706 10.0848C15.3641 11.5844 14.5492 12.9321 13.3635 13.9C12.1778 14.8679 10.6942 15.3966 9.16359 15.3966C7.633 15.3966 6.14939 14.8679 4.9637 13.9C3.77801 12.9321 2.96302 11.5844 2.65659 10.0848C2.63317 9.9648 2.65814 9.84041 2.72605 9.73875C2.79396 9.63709 2.89931 9.5664 3.01912 9.54208C3.13894 9.51777 3.26351 9.54181 3.36568 9.60896C3.46784 9.67611 3.53932 9.78093 3.56453 9.90056C3.81029 11.1045 4.43752 12.1971 5.35322 13.0165C6.26892 13.8358 7.4243 14.3382 8.64804 14.4492C9.87177 14.5601 11.0987 14.2737 12.1468 13.6324C13.1949 12.9911 14.0084 12.0291 14.4667 10.889L14.5175 10.7577L13.7769 11.0425C13.6716 11.083 13.5552 11.0838 13.4495 11.0446C13.3437 11.0054 13.2559 10.929 13.2025 10.8297L13.1781 10.7767C13.1376 10.6714 13.137 10.555 13.1762 10.4492C13.2155 10.3435 13.2921 10.2557 13.3915 10.2023L13.4444 10.178L15.0501 9.56015Z" fill="#999999"/>
</svg>
