<svg preserveAspectRatio="none" width="100%" height="100%" overflow="visible" style="display: block;" viewBox="0 0 22 22" fill="none" xmlns="http://www.w3.org/2000/svg">
<g id="&#232;&#175;&#132;&#232;&#174;&#186;">
<path id="Subtract" d="M9.24021 1.75977C13.2802 1.75987 16.6514 4.62609 17.4306 8.43555C19.6027 9.38782 21.1201 11.5569 21.1201 14.0801C21.1201 15.5391 20.6125 16.8795 19.7646 17.9346L20.123 19.0098C20.1747 19.1648 20.183 19.3312 20.1455 19.4902C20.108 19.6492 20.0265 19.7946 19.9111 19.9102C19.7957 20.0256 19.6501 20.1069 19.4912 20.1445C19.3321 20.1821 19.1648 20.1748 19.0097 20.123L17.5928 19.6504C16.7698 20.0398 15.8704 20.2415 14.9599 20.2402C13.2299 20.2402 11.6667 19.5272 10.5478 18.3789C10.122 18.4453 9.68542 18.4805 9.24021 18.4805C8.03729 18.4821 6.84817 18.2224 5.75486 17.7207L3.38377 18.4326C3.22942 18.4789 3.06511 18.482 2.90916 18.4414C2.7532 18.4008 2.61122 18.3178 2.499 18.2021C2.38689 18.0865 2.30826 17.9422 2.27244 17.7852C2.23667 17.6282 2.245 17.4643 2.29588 17.3115L2.88279 15.5498C1.58751 14.0375 0.876784 12.1113 0.879862 10.1201C0.879862 5.5032 4.62329 1.75977 9.24021 1.75977ZM17.5996 10.1201C17.5995 13.7351 15.3057 16.814 12.0937 17.9805C12.9239 18.5924 13.9286 18.9215 14.9599 18.9199C15.6255 18.9199 16.2705 18.7863 16.8662 18.5303L17.0283 18.458L17.5078 18.2305L18.5928 18.5918L18.2851 17.6699L18.7363 17.1084C19.4269 16.2505 19.802 15.1814 19.7998 14.0801C19.7998 12.381 18.9247 10.8858 17.5996 10.0225V10.1201ZM6.16014 11.4404C5.57347 11.4404 5.28025 11.7336 5.28025 12.3203C5.28035 12.9068 5.57357 13.2002 6.16014 13.2002H9.67967C10.2662 13.2002 10.5594 12.9068 10.5595 12.3203C10.5595 11.7336 10.2663 11.4404 9.67967 11.4404H6.16014ZM6.16014 7.04004C5.57349 7.04004 5.28028 7.3333 5.28025 7.91992C5.28025 8.50659 5.57347 8.7998 6.16014 8.7998H12.3203C12.9068 8.79971 13.2002 8.50649 13.2002 7.91992C13.2002 7.3334 12.9067 7.04013 12.3203 7.04004H6.16014Z" fill="white"/>
</g>
</svg>
